<mxfile host="65bd71144e">
    <diagram id="Y-92n7V8BX7nBPBWoUrk" name="Main">
        <mxGraphModel dx="655" dy="436" grid="1" gridSize="10" guides="1" tooltips="1" connect="1" arrows="1" fold="1" page="1" pageScale="1" pageWidth="850" pageHeight="1100" math="0" shadow="0">
            <root>
                <mxCell id="0"/>
                <mxCell id="1" parent="0"/>
                <mxCell id="6" value="" style="edgeStyle=none;html=1;" parent="1" source="3" target="5" edge="1">
                    <mxGeometry relative="1" as="geometry"/>
                </mxCell>
                <mxCell id="8" value="" style="edgeStyle=none;html=1;" parent="1" source="3" target="7" edge="1">
                    <mxGeometry relative="1" as="geometry"/>
                </mxCell>
                <mxCell id="12" value="" style="edgeStyle=none;html=1;" parent="1" source="3" target="11" edge="1">
                    <mxGeometry relative="1" as="geometry"/>
                </mxCell>
                <mxCell id="14" value="" style="edgeStyle=none;html=1;" parent="1" source="3" target="13" edge="1">
                    <mxGeometry relative="1" as="geometry"/>
                </mxCell>
                <mxCell id="BblZoLlnHuhk8TZYN5Bj-15" value="" style="edgeStyle=none;html=1;" parent="1" source="3" target="BblZoLlnHuhk8TZYN5Bj-14" edge="1">
                    <mxGeometry relative="1" as="geometry"/>
                </mxCell>
                <mxCell id="BblZoLlnHuhk8TZYN5Bj-19" value="" style="edgeStyle=none;html=1;exitX=0.5;exitY=1;exitDx=0;exitDy=0;entryX=0.5;entryY=0;entryDx=0;entryDy=0;" parent="1" source="BblZoLlnHuhk8TZYN5Bj-18" target="3" edge="1">
                    <mxGeometry relative="1" as="geometry">
                        <mxPoint x="500" y="615" as="targetPoint"/>
                    </mxGeometry>
                </mxCell>
                <mxCell id="3" value="Приветственное сообщение" style="shape=parallelogram;perimeter=parallelogramPerimeter;whiteSpace=wrap;html=1;fixedSize=1;rounded=1;" parent="1" vertex="1">
                    <mxGeometry x="378" y="655" width="135" height="60" as="geometry"/>
                </mxCell>
                <mxCell id="5" value="Ввод команды:&amp;nbsp;&lt;br&gt;/settings" style="shape=parallelogram;perimeter=parallelogramPerimeter;whiteSpace=wrap;html=1;fixedSize=1;rounded=1;" parent="1" vertex="1">
                    <mxGeometry x="385.5" y="795" width="120" height="60" as="geometry"/>
                </mxCell>
                <UserObject label="Ввод команды: /projects" link="data:page/id,VpUQu4jCGj7OkIW_7U4S" id="7">
                    <mxCell style="shape=parallelogram;perimeter=parallelogramPerimeter;whiteSpace=wrap;html=1;fixedSize=1;rounded=1;" parent="1" vertex="1">
                        <mxGeometry x="220" y="795" width="120" height="60" as="geometry"/>
                    </mxCell>
                </UserObject>
                <mxCell id="11" value="Ввод команды:&amp;nbsp;&lt;br&gt;/help" style="shape=parallelogram;perimeter=parallelogramPerimeter;whiteSpace=wrap;html=1;fixedSize=1;rounded=1;" parent="1" vertex="1">
                    <mxGeometry x="550" y="795" width="120" height="60" as="geometry"/>
                </mxCell>
                <mxCell id="13" value="Ввод команды:&amp;nbsp;&lt;br&gt;/cancel" style="shape=parallelogram;perimeter=parallelogramPerimeter;whiteSpace=wrap;html=1;fixedSize=1;rounded=1;" parent="1" vertex="1">
                    <mxGeometry x="710" y="795" width="120" height="60" as="geometry"/>
                </mxCell>
                <mxCell id="BblZoLlnHuhk8TZYN5Bj-14" value="Передача списка URL или .txt файла" style="shape=parallelogram;perimeter=parallelogramPerimeter;whiteSpace=wrap;html=1;fixedSize=1;rounded=1;" parent="1" vertex="1">
                    <mxGeometry x="20" y="795" width="150" height="60" as="geometry"/>
                </mxCell>
                <mxCell id="BblZoLlnHuhk8TZYN5Bj-18" value="Ввод команды:&amp;nbsp;&lt;br&gt;/start" style="shape=parallelogram;perimeter=parallelogramPerimeter;whiteSpace=wrap;html=1;fixedSize=1;rounded=1;" parent="1" vertex="1">
                    <mxGeometry x="385.5" y="515" width="120" height="60" as="geometry"/>
                </mxCell>
                <mxCell id="BblZoLlnHuhk8TZYN5Bj-21" value="" style="edgeStyle=none;html=1;" parent="1" source="BblZoLlnHuhk8TZYN5Bj-20" target="BblZoLlnHuhk8TZYN5Bj-18" edge="1">
                    <mxGeometry relative="1" as="geometry"/>
                </mxCell>
                <mxCell id="BblZoLlnHuhk8TZYN5Bj-20" value="API_TOKEN" style="whiteSpace=wrap;html=1;" parent="1" vertex="1">
                    <mxGeometry x="385.5" y="375" width="120" height="60" as="geometry"/>
                </mxCell>
                <mxCell id="BblZoLlnHuhk8TZYN5Bj-23" value="" style="edgeStyle=none;html=1;" parent="1" source="BblZoLlnHuhk8TZYN5Bj-22" target="BblZoLlnHuhk8TZYN5Bj-20" edge="1">
                    <mxGeometry relative="1" as="geometry"/>
                </mxCell>
                <mxCell id="BblZoLlnHuhk8TZYN5Bj-22" value="aiogram" style="rounded=1;whiteSpace=wrap;html=1;" parent="1" vertex="1">
                    <mxGeometry x="385.5" y="245" width="120" height="60" as="geometry"/>
                </mxCell>
            </root>
        </mxGraphModel>
    </diagram>
    <diagram id="VpUQu4jCGj7OkIW_7U4S" name="Команда /projects">
        <mxGraphModel dx="1505" dy="692" grid="1" gridSize="10" guides="1" tooltips="1" connect="1" arrows="1" fold="1" page="1" pageScale="1" pageWidth="850" pageHeight="1100" math="0" shadow="0">
            <root>
                <mxCell id="0"/>
                <mxCell id="1" parent="0"/>
                <mxCell id="u2bU9BNamu38e8b0bqES-8" value="" style="edgeStyle=none;html=1;" parent="1" source="u2bU9BNamu38e8b0bqES-1" target="u2bU9BNamu38e8b0bqES-7" edge="1">
                    <mxGeometry relative="1" as="geometry"/>
                </mxCell>
                <UserObject label="Ввод команды: /projects" id="u2bU9BNamu38e8b0bqES-1">
                    <mxCell style="shape=parallelogram;perimeter=parallelogramPerimeter;whiteSpace=wrap;html=1;fixedSize=1;rounded=1;" parent="1" vertex="1">
                        <mxGeometry x="55" y="221" width="120" height="60" as="geometry"/>
                    </mxCell>
                </UserObject>
                <mxCell id="u2bU9BNamu38e8b0bqES-23" value="" style="edgeStyle=none;html=1;" parent="1" source="u2bU9BNamu38e8b0bqES-4" target="u2bU9BNamu38e8b0bqES-22" edge="1">
                    <mxGeometry relative="1" as="geometry"/>
                </mxCell>
                <mxCell id="u2bU9BNamu38e8b0bqES-4" value="projects" style="shape=cylinder3;whiteSpace=wrap;html=1;boundedLbl=1;backgroundOutline=1;size=15;" parent="1" vertex="1">
                    <mxGeometry x="85" y="531" width="60" height="80" as="geometry"/>
                </mxCell>
                <mxCell id="u2bU9BNamu38e8b0bqES-10" value="" style="edgeStyle=none;html=1;entryX=0.5;entryY=0;entryDx=0;entryDy=0;entryPerimeter=0;" parent="1" source="u2bU9BNamu38e8b0bqES-7" target="u2bU9BNamu38e8b0bqES-4" edge="1">
                    <mxGeometry relative="1" as="geometry">
                        <mxPoint x="115" y="531" as="targetPoint"/>
                    </mxGeometry>
                </mxCell>
                <mxCell id="u2bU9BNamu38e8b0bqES-7" value="user_id" style="shape=parallelogram;perimeter=parallelogramPerimeter;whiteSpace=wrap;html=1;fixedSize=1;rounded=1;" parent="1" vertex="1">
                    <mxGeometry x="55" y="361" width="120" height="60" as="geometry"/>
                </mxCell>
                <mxCell id="u2bU9BNamu38e8b0bqES-11" value="projects" style="shape=table;startSize=30;container=1;collapsible=0;childLayout=tableLayout;fixedRows=1;rowLines=0;fontStyle=1;" parent="1" vertex="1">
                    <mxGeometry x="-390" y="421" width="350" height="300" as="geometry"/>
                </mxCell>
                <mxCell id="u2bU9BNamu38e8b0bqES-12" value="" style="shape=tableRow;horizontal=0;startSize=0;swimlaneHead=0;swimlaneBody=0;top=0;left=0;bottom=0;right=0;collapsible=0;dropTarget=0;fillColor=none;points=[[0,0.5],[1,0.5]];portConstraint=eastwest;" parent="u2bU9BNamu38e8b0bqES-11" vertex="1">
                    <mxGeometry y="30" width="350" height="30" as="geometry"/>
                </mxCell>
                <mxCell id="u2bU9BNamu38e8b0bqES-13" value="INT PRIMARY KEY" style="shape=partialRectangle;html=1;whiteSpace=wrap;connectable=0;fillColor=none;top=0;left=0;bottom=0;right=0;overflow=hidden;pointerEvents=1;" parent="u2bU9BNamu38e8b0bqES-12" vertex="1">
                    <mxGeometry width="126" height="30" as="geometry">
                        <mxRectangle width="126" height="30" as="alternateBounds"/>
                    </mxGeometry>
                </mxCell>
                <mxCell id="u2bU9BNamu38e8b0bqES-14" value="id" style="shape=partialRectangle;html=1;whiteSpace=wrap;connectable=0;fillColor=none;top=0;left=0;bottom=0;right=0;align=left;spacingLeft=6;overflow=hidden;" parent="u2bU9BNamu38e8b0bqES-12" vertex="1">
                    <mxGeometry x="126" width="224" height="30" as="geometry">
                        <mxRectangle width="224" height="30" as="alternateBounds"/>
                    </mxGeometry>
                </mxCell>
                <mxCell id="PJVoFVjtxu0i5i7gqL4C-7" style="shape=tableRow;horizontal=0;startSize=0;swimlaneHead=0;swimlaneBody=0;top=0;left=0;bottom=0;right=0;collapsible=0;dropTarget=0;fillColor=none;points=[[0,0.5],[1,0.5]];portConstraint=eastwest;" vertex="1" parent="u2bU9BNamu38e8b0bqES-11">
                    <mxGeometry y="60" width="350" height="30" as="geometry"/>
                </mxCell>
                <mxCell id="PJVoFVjtxu0i5i7gqL4C-8" value="TEXT" style="shape=partialRectangle;html=1;whiteSpace=wrap;connectable=0;fillColor=none;top=1;left=0;bottom=0;right=0;overflow=hidden;" vertex="1" parent="PJVoFVjtxu0i5i7gqL4C-7">
                    <mxGeometry width="126" height="30" as="geometry">
                        <mxRectangle width="126" height="30" as="alternateBounds"/>
                    </mxGeometry>
                </mxCell>
                <mxCell id="PJVoFVjtxu0i5i7gqL4C-9" value="url" style="shape=partialRectangle;html=1;whiteSpace=wrap;connectable=0;fillColor=none;top=1;left=0;bottom=0;right=0;align=left;spacingLeft=6;overflow=hidden;" vertex="1" parent="PJVoFVjtxu0i5i7gqL4C-7">
                    <mxGeometry x="126" width="224" height="30" as="geometry">
                        <mxRectangle width="224" height="30" as="alternateBounds"/>
                    </mxGeometry>
                </mxCell>
                <mxCell id="PJVoFVjtxu0i5i7gqL4C-11" style="shape=tableRow;horizontal=0;startSize=0;swimlaneHead=0;swimlaneBody=0;top=0;left=0;bottom=0;right=0;collapsible=0;dropTarget=0;fillColor=none;points=[[0,0.5],[1,0.5]];portConstraint=eastwest;" vertex="1" parent="u2bU9BNamu38e8b0bqES-11">
                    <mxGeometry y="90" width="350" height="30" as="geometry"/>
                </mxCell>
                <mxCell id="PJVoFVjtxu0i5i7gqL4C-12" value="INT" style="shape=partialRectangle;html=1;whiteSpace=wrap;connectable=0;fillColor=none;top=1;left=0;bottom=0;right=0;overflow=hidden;" vertex="1" parent="PJVoFVjtxu0i5i7gqL4C-11">
                    <mxGeometry width="126" height="30" as="geometry">
                        <mxRectangle width="126" height="30" as="alternateBounds"/>
                    </mxGeometry>
                </mxCell>
                <mxCell id="PJVoFVjtxu0i5i7gqL4C-13" value="user_id" style="shape=partialRectangle;html=1;whiteSpace=wrap;connectable=0;fillColor=none;top=1;left=0;bottom=0;right=0;align=left;spacingLeft=6;overflow=hidden;" vertex="1" parent="PJVoFVjtxu0i5i7gqL4C-11">
                    <mxGeometry x="126" width="224" height="30" as="geometry">
                        <mxRectangle width="224" height="30" as="alternateBounds"/>
                    </mxGeometry>
                </mxCell>
                <mxCell id="u2bU9BNamu38e8b0bqES-15" value="" style="shape=tableRow;horizontal=0;startSize=0;swimlaneHead=0;swimlaneBody=0;top=0;left=0;bottom=0;right=0;collapsible=0;dropTarget=0;fillColor=none;points=[[0,0.5],[1,0.5]];portConstraint=eastwest;" parent="u2bU9BNamu38e8b0bqES-11" vertex="1">
                    <mxGeometry y="120" width="350" height="30" as="geometry"/>
                </mxCell>
                <mxCell id="u2bU9BNamu38e8b0bqES-16" value="BOOLEAN" style="shape=partialRectangle;html=1;whiteSpace=wrap;connectable=0;fillColor=none;top=1;left=0;bottom=0;right=0;overflow=hidden;" parent="u2bU9BNamu38e8b0bqES-15" vertex="1">
                    <mxGeometry width="126" height="30" as="geometry">
                        <mxRectangle width="126" height="30" as="alternateBounds"/>
                    </mxGeometry>
                </mxCell>
                <mxCell id="u2bU9BNamu38e8b0bqES-17" value="indexnow" style="shape=partialRectangle;html=1;whiteSpace=wrap;connectable=0;fillColor=none;top=1;left=0;bottom=0;right=0;align=left;spacingLeft=6;overflow=hidden;" parent="u2bU9BNamu38e8b0bqES-15" vertex="1">
                    <mxGeometry x="126" width="224" height="30" as="geometry">
                        <mxRectangle width="224" height="30" as="alternateBounds"/>
                    </mxGeometry>
                </mxCell>
                <mxCell id="u2bU9BNamu38e8b0bqES-18" value="" style="shape=tableRow;horizontal=0;startSize=0;swimlaneHead=0;swimlaneBody=0;top=0;left=0;bottom=0;right=0;collapsible=0;dropTarget=0;fillColor=none;points=[[0,0.5],[1,0.5]];portConstraint=eastwest;" parent="u2bU9BNamu38e8b0bqES-11" vertex="1">
                    <mxGeometry y="150" width="350" height="30" as="geometry"/>
                </mxCell>
                <mxCell id="u2bU9BNamu38e8b0bqES-19" value="TEXT" style="shape=partialRectangle;html=1;whiteSpace=wrap;connectable=0;fillColor=none;top=0;left=0;bottom=0;right=0;overflow=hidden;" parent="u2bU9BNamu38e8b0bqES-18" vertex="1">
                    <mxGeometry width="126" height="30" as="geometry">
                        <mxRectangle width="126" height="30" as="alternateBounds"/>
                    </mxGeometry>
                </mxCell>
                <mxCell id="u2bU9BNamu38e8b0bqES-20" value="indexnow_key" style="shape=partialRectangle;html=1;whiteSpace=wrap;connectable=0;fillColor=none;top=0;left=0;bottom=0;right=0;align=left;spacingLeft=6;overflow=hidden;" parent="u2bU9BNamu38e8b0bqES-18" vertex="1">
                    <mxGeometry x="126" width="224" height="30" as="geometry">
                        <mxRectangle width="224" height="30" as="alternateBounds"/>
                    </mxGeometry>
                </mxCell>
                <mxCell id="YlY7SSHt3IJ51fpsiqIL-36" style="shape=tableRow;horizontal=0;startSize=0;swimlaneHead=0;swimlaneBody=0;top=0;left=0;bottom=0;right=0;collapsible=0;dropTarget=0;fillColor=none;points=[[0,0.5],[1,0.5]];portConstraint=eastwest;" parent="u2bU9BNamu38e8b0bqES-11" vertex="1">
                    <mxGeometry y="180" width="350" height="30" as="geometry"/>
                </mxCell>
                <mxCell id="YlY7SSHt3IJ51fpsiqIL-37" value="TEXT" style="shape=partialRectangle;html=1;whiteSpace=wrap;connectable=0;fillColor=none;top=0;left=0;bottom=0;right=0;overflow=hidden;" parent="YlY7SSHt3IJ51fpsiqIL-36" vertex="1">
                    <mxGeometry width="126" height="30" as="geometry">
                        <mxRectangle width="126" height="30" as="alternateBounds"/>
                    </mxGeometry>
                </mxCell>
                <mxCell id="YlY7SSHt3IJ51fpsiqIL-38" value="indexnow_key_path" style="shape=partialRectangle;html=1;whiteSpace=wrap;connectable=0;fillColor=none;top=0;left=0;bottom=0;right=0;align=left;spacingLeft=6;overflow=hidden;" parent="YlY7SSHt3IJ51fpsiqIL-36" vertex="1">
                    <mxGeometry x="126" width="224" height="30" as="geometry">
                        <mxRectangle width="224" height="30" as="alternateBounds"/>
                    </mxGeometry>
                </mxCell>
                <mxCell id="YlY7SSHt3IJ51fpsiqIL-39" style="shape=tableRow;horizontal=0;startSize=0;swimlaneHead=0;swimlaneBody=0;top=0;left=0;bottom=0;right=0;collapsible=0;dropTarget=0;fillColor=none;points=[[0,0.5],[1,0.5]];portConstraint=eastwest;" parent="u2bU9BNamu38e8b0bqES-11" vertex="1">
                    <mxGeometry y="210" width="350" height="30" as="geometry"/>
                </mxCell>
                <mxCell id="YlY7SSHt3IJ51fpsiqIL-40" value="INT" style="shape=partialRectangle;html=1;whiteSpace=wrap;connectable=0;fillColor=none;top=0;left=0;bottom=1;right=0;overflow=hidden;" parent="YlY7SSHt3IJ51fpsiqIL-39" vertex="1">
                    <mxGeometry width="126" height="30" as="geometry">
                        <mxRectangle width="126" height="30" as="alternateBounds"/>
                    </mxGeometry>
                </mxCell>
                <mxCell id="YlY7SSHt3IJ51fpsiqIL-41" value="indexnow_service" style="shape=partialRectangle;html=1;whiteSpace=wrap;connectable=0;fillColor=none;top=0;left=0;bottom=1;right=0;align=left;spacingLeft=6;overflow=hidden;" parent="YlY7SSHt3IJ51fpsiqIL-39" vertex="1">
                    <mxGeometry x="126" width="224" height="30" as="geometry">
                        <mxRectangle width="224" height="30" as="alternateBounds"/>
                    </mxGeometry>
                </mxCell>
                <mxCell id="PJVoFVjtxu0i5i7gqL4C-1" style="shape=tableRow;horizontal=0;startSize=0;swimlaneHead=0;swimlaneBody=0;top=0;left=0;bottom=0;right=0;collapsible=0;dropTarget=0;fillColor=none;points=[[0,0.5],[1,0.5]];portConstraint=eastwest;" vertex="1" parent="u2bU9BNamu38e8b0bqES-11">
                    <mxGeometry y="240" width="350" height="30" as="geometry"/>
                </mxCell>
                <mxCell id="PJVoFVjtxu0i5i7gqL4C-2" value="BOOLEAN" style="shape=partialRectangle;html=1;whiteSpace=wrap;connectable=0;fillColor=none;top=0;left=0;bottom=0;right=0;overflow=hidden;" vertex="1" parent="PJVoFVjtxu0i5i7gqL4C-1">
                    <mxGeometry width="126" height="30" as="geometry">
                        <mxRectangle width="126" height="30" as="alternateBounds"/>
                    </mxGeometry>
                </mxCell>
                <mxCell id="PJVoFVjtxu0i5i7gqL4C-3" value="&lt;span style=&quot;text-align: center;&quot;&gt;google_idexing_API&lt;/span&gt;" style="shape=partialRectangle;html=1;whiteSpace=wrap;connectable=0;fillColor=none;top=0;left=0;bottom=0;right=0;align=left;spacingLeft=6;overflow=hidden;" vertex="1" parent="PJVoFVjtxu0i5i7gqL4C-1">
                    <mxGeometry x="126" width="224" height="30" as="geometry">
                        <mxRectangle width="224" height="30" as="alternateBounds"/>
                    </mxGeometry>
                </mxCell>
                <mxCell id="PJVoFVjtxu0i5i7gqL4C-4" style="shape=tableRow;horizontal=0;startSize=0;swimlaneHead=0;swimlaneBody=0;top=0;left=0;bottom=0;right=0;collapsible=0;dropTarget=0;fillColor=none;points=[[0,0.5],[1,0.5]];portConstraint=eastwest;" vertex="1" parent="u2bU9BNamu38e8b0bqES-11">
                    <mxGeometry y="270" width="350" height="30" as="geometry"/>
                </mxCell>
                <mxCell id="PJVoFVjtxu0i5i7gqL4C-5" value="TEXT" style="shape=partialRectangle;html=1;whiteSpace=wrap;connectable=0;fillColor=none;top=0;left=0;bottom=1;right=0;overflow=hidden;" vertex="1" parent="PJVoFVjtxu0i5i7gqL4C-4">
                    <mxGeometry width="126" height="30" as="geometry">
                        <mxRectangle width="126" height="30" as="alternateBounds"/>
                    </mxGeometry>
                </mxCell>
                <mxCell id="PJVoFVjtxu0i5i7gqL4C-6" value="google_indexing_API_JSON_key" style="shape=partialRectangle;html=1;whiteSpace=wrap;connectable=0;fillColor=none;top=0;left=0;bottom=1;right=0;align=left;spacingLeft=6;overflow=hidden;" vertex="1" parent="PJVoFVjtxu0i5i7gqL4C-4">
                    <mxGeometry x="126" width="224" height="30" as="geometry">
                        <mxRectangle width="224" height="30" as="alternateBounds"/>
                    </mxGeometry>
                </mxCell>
                <mxCell id="u2bU9BNamu38e8b0bqES-21" style="edgeStyle=none;html=1;exitX=1;exitY=0.5;exitDx=0;exitDy=0;" parent="1" source="u2bU9BNamu38e8b0bqES-18" target="u2bU9BNamu38e8b0bqES-4" edge="1">
                    <mxGeometry relative="1" as="geometry"/>
                </mxCell>
                <mxCell id="u2bU9BNamu38e8b0bqES-25" value="" style="edgeStyle=none;html=1;" parent="1" source="u2bU9BNamu38e8b0bqES-22" target="u2bU9BNamu38e8b0bqES-24" edge="1">
                    <mxGeometry relative="1" as="geometry"/>
                </mxCell>
                <mxCell id="u2bU9BNamu38e8b0bqES-22" value="Вывод списка проектов" style="shape=parallelogram;perimeter=parallelogramPerimeter;whiteSpace=wrap;html=1;fixedSize=1;" parent="1" vertex="1">
                    <mxGeometry x="55" y="701" width="120" height="60" as="geometry"/>
                </mxCell>
                <mxCell id="u2bU9BNamu38e8b0bqES-28" style="edgeStyle=none;html=1;entryX=0.5;entryY=0;entryDx=0;entryDy=0;" parent="1" source="u2bU9BNamu38e8b0bqES-24" target="u2bU9BNamu38e8b0bqES-27" edge="1">
                    <mxGeometry relative="1" as="geometry"/>
                </mxCell>
                <mxCell id="u2bU9BNamu38e8b0bqES-24" value="Добавить проект" style="shape=parallelogram;perimeter=parallelogramPerimeter;whiteSpace=wrap;html=1;fixedSize=1;" parent="1" vertex="1">
                    <mxGeometry x="55" y="841" width="120" height="60" as="geometry"/>
                </mxCell>
                <mxCell id="u2bU9BNamu38e8b0bqES-33" value="" style="edgeStyle=none;html=1;" parent="1" source="u2bU9BNamu38e8b0bqES-27" target="u2bU9BNamu38e8b0bqES-32" edge="1">
                    <mxGeometry relative="1" as="geometry"/>
                </mxCell>
                <mxCell id="YlY7SSHt3IJ51fpsiqIL-1" style="edgeStyle=none;html=1;entryX=0;entryY=0.5;entryDx=0;entryDy=0;" parent="1" source="u2bU9BNamu38e8b0bqES-27" target="u2bU9BNamu38e8b0bqES-18" edge="1">
                    <mxGeometry relative="1" as="geometry">
                        <Array as="points">
                            <mxPoint x="-430" y="1001"/>
                            <mxPoint x="-430" y="590"/>
                        </Array>
                    </mxGeometry>
                </mxCell>
                <mxCell id="u2bU9BNamu38e8b0bqES-27" value="Название проекта" style="shape=parallelogram;perimeter=parallelogramPerimeter;whiteSpace=wrap;html=1;fixedSize=1;" parent="1" vertex="1">
                    <mxGeometry x="38" y="971" width="155" height="60" as="geometry"/>
                </mxCell>
                <mxCell id="u2bU9BNamu38e8b0bqES-35" value="" style="edgeStyle=none;html=1;" parent="1" source="u2bU9BNamu38e8b0bqES-32" target="u2bU9BNamu38e8b0bqES-34" edge="1">
                    <mxGeometry relative="1" as="geometry"/>
                </mxCell>
                <mxCell id="u2bU9BNamu38e8b0bqES-36" value="Да" style="edgeLabel;html=1;align=center;verticalAlign=middle;resizable=0;points=[];" parent="u2bU9BNamu38e8b0bqES-35" vertex="1" connectable="0">
                    <mxGeometry x="-0.4496" y="1" relative="1" as="geometry">
                        <mxPoint as="offset"/>
                    </mxGeometry>
                </mxCell>
                <mxCell id="u2bU9BNamu38e8b0bqES-54" style="edgeStyle=none;html=1;exitX=1;exitY=0.5;exitDx=0;exitDy=0;entryX=1;entryY=0.5;entryDx=0;entryDy=0;" parent="1" source="u2bU9BNamu38e8b0bqES-32" target="u2bU9BNamu38e8b0bqES-50" edge="1">
                    <mxGeometry relative="1" as="geometry">
                        <Array as="points">
                            <mxPoint x="450" y="1176"/>
                            <mxPoint x="450" y="2071"/>
                        </Array>
                    </mxGeometry>
                </mxCell>
                <mxCell id="u2bU9BNamu38e8b0bqES-56" value="Нет" style="edgeLabel;html=1;align=center;verticalAlign=middle;resizable=0;points=[];" parent="u2bU9BNamu38e8b0bqES-54" vertex="1" connectable="0">
                    <mxGeometry x="-0.8245" y="-2" relative="1" as="geometry">
                        <mxPoint as="offset"/>
                    </mxGeometry>
                </mxCell>
                <mxCell id="u2bU9BNamu38e8b0bqES-32" value="Включить переобход с помощью технологии IndexNow?" style="rhombus;whiteSpace=wrap;html=1;fillColor=#e3c800;fontColor=#000000;strokeColor=#B09500;" parent="1" vertex="1">
                    <mxGeometry x="23.25" y="1101" width="184.5" height="150" as="geometry"/>
                </mxCell>
                <mxCell id="u2bU9BNamu38e8b0bqES-39" value="" style="edgeStyle=none;html=1;" parent="1" source="u2bU9BNamu38e8b0bqES-34" target="u2bU9BNamu38e8b0bqES-38" edge="1">
                    <mxGeometry relative="1" as="geometry"/>
                </mxCell>
                <mxCell id="u2bU9BNamu38e8b0bqES-34" value="Ваш ключ" style="shape=parallelogram;perimeter=parallelogramPerimeter;whiteSpace=wrap;html=1;fixedSize=1;fillColor=#e3c800;fontColor=#000000;strokeColor=#B09500;" parent="1" vertex="1">
                    <mxGeometry x="55.5" y="1376" width="120" height="60" as="geometry"/>
                </mxCell>
                <mxCell id="u2bU9BNamu38e8b0bqES-41" value="" style="edgeStyle=none;html=1;" parent="1" source="u2bU9BNamu38e8b0bqES-38" target="u2bU9BNamu38e8b0bqES-40" edge="1">
                    <mxGeometry relative="1" as="geometry"/>
                </mxCell>
                <mxCell id="u2bU9BNamu38e8b0bqES-38" value="Полный путь к файлу ключу (не обязательно)" style="shape=parallelogram;perimeter=parallelogramPerimeter;whiteSpace=wrap;html=1;fixedSize=1;fillColor=#e3c800;fontColor=#000000;strokeColor=#B09500;" parent="1" vertex="1">
                    <mxGeometry x="55.5" y="1516" width="120" height="60" as="geometry"/>
                </mxCell>
                <mxCell id="u2bU9BNamu38e8b0bqES-45" value="" style="edgeStyle=none;html=1;" parent="1" source="u2bU9BNamu38e8b0bqES-40" target="u2bU9BNamu38e8b0bqES-44" edge="1">
                    <mxGeometry relative="1" as="geometry"/>
                </mxCell>
                <mxCell id="u2bU9BNamu38e8b0bqES-47" style="edgeStyle=none;html=1;entryX=0.5;entryY=0;entryDx=0;entryDy=0;" parent="1" source="u2bU9BNamu38e8b0bqES-40" target="u2bU9BNamu38e8b0bqES-46" edge="1">
                    <mxGeometry relative="1" as="geometry"/>
                </mxCell>
                <mxCell id="u2bU9BNamu38e8b0bqES-49" style="edgeStyle=none;html=1;entryX=0.5;entryY=0;entryDx=0;entryDy=0;" parent="1" source="u2bU9BNamu38e8b0bqES-40" target="u2bU9BNamu38e8b0bqES-48" edge="1">
                    <mxGeometry relative="1" as="geometry"/>
                </mxCell>
                <mxCell id="u2bU9BNamu38e8b0bqES-40" value="Поисковая система" style="rhombus;whiteSpace=wrap;html=1;fillColor=#e3c800;fontColor=#000000;strokeColor=#B09500;" parent="1" vertex="1">
                    <mxGeometry x="48.25" y="1661" width="134.5" height="115" as="geometry"/>
                </mxCell>
                <mxCell id="u2bU9BNamu38e8b0bqES-53" style="edgeStyle=none;html=1;entryX=0.5;entryY=0;entryDx=0;entryDy=0;" parent="1" source="u2bU9BNamu38e8b0bqES-44" target="u2bU9BNamu38e8b0bqES-50" edge="1">
                    <mxGeometry relative="1" as="geometry"/>
                </mxCell>
                <mxCell id="u2bU9BNamu38e8b0bqES-44" value="Yandex" style="shape=parallelogram;perimeter=parallelogramPerimeter;whiteSpace=wrap;html=1;fixedSize=1;fillColor=#e3c800;fontColor=#000000;strokeColor=#B09500;" parent="1" vertex="1">
                    <mxGeometry x="-140" y="1861" width="120" height="60" as="geometry"/>
                </mxCell>
                <mxCell id="u2bU9BNamu38e8b0bqES-51" value="" style="edgeStyle=none;html=1;" parent="1" source="u2bU9BNamu38e8b0bqES-46" target="u2bU9BNamu38e8b0bqES-50" edge="1">
                    <mxGeometry relative="1" as="geometry"/>
                </mxCell>
                <mxCell id="u2bU9BNamu38e8b0bqES-46" value="Яндекс и Bing" style="shape=parallelogram;perimeter=parallelogramPerimeter;whiteSpace=wrap;html=1;fixedSize=1;fillColor=#e3c800;fontColor=#000000;strokeColor=#B09500;" parent="1" vertex="1">
                    <mxGeometry x="55.5" y="1861" width="120" height="60" as="geometry"/>
                </mxCell>
                <mxCell id="u2bU9BNamu38e8b0bqES-52" style="edgeStyle=none;html=1;entryX=0.5;entryY=0;entryDx=0;entryDy=0;" parent="1" source="u2bU9BNamu38e8b0bqES-48" target="u2bU9BNamu38e8b0bqES-50" edge="1">
                    <mxGeometry relative="1" as="geometry"/>
                </mxCell>
                <mxCell id="u2bU9BNamu38e8b0bqES-48" value="Bing" style="shape=parallelogram;perimeter=parallelogramPerimeter;whiteSpace=wrap;html=1;fixedSize=1;fillColor=#e3c800;fontColor=#000000;strokeColor=#B09500;" parent="1" vertex="1">
                    <mxGeometry x="250" y="1861" width="120" height="60" as="geometry"/>
                </mxCell>
                <mxCell id="YlY7SSHt3IJ51fpsiqIL-43" value="" style="edgeStyle=none;html=1;" parent="1" source="u2bU9BNamu38e8b0bqES-50" target="YlY7SSHt3IJ51fpsiqIL-42" edge="1">
                    <mxGeometry relative="1" as="geometry"/>
                </mxCell>
                <mxCell id="YlY7SSHt3IJ51fpsiqIL-44" value="Да" style="edgeLabel;html=1;align=center;verticalAlign=middle;resizable=0;points=[];" parent="YlY7SSHt3IJ51fpsiqIL-43" vertex="1" connectable="0">
                    <mxGeometry x="-0.0164" y="2" relative="1" as="geometry">
                        <mxPoint as="offset"/>
                    </mxGeometry>
                </mxCell>
                <mxCell id="YlY7SSHt3IJ51fpsiqIL-64" style="edgeStyle=none;html=1;entryX=0;entryY=0.5;entryDx=0;entryDy=0;" parent="1" source="u2bU9BNamu38e8b0bqES-50" target="YlY7SSHt3IJ51fpsiqIL-59" edge="1">
                    <mxGeometry relative="1" as="geometry">
                        <Array as="points">
                            <mxPoint x="-200" y="2066"/>
                            <mxPoint x="-200" y="2899"/>
                        </Array>
                    </mxGeometry>
                </mxCell>
                <mxCell id="YlY7SSHt3IJ51fpsiqIL-65" value="Нет" style="edgeLabel;html=1;align=center;verticalAlign=middle;resizable=0;points=[];" parent="YlY7SSHt3IJ51fpsiqIL-64" vertex="1" connectable="0">
                    <mxGeometry x="-0.8439" y="1" relative="1" as="geometry">
                        <mxPoint as="offset"/>
                    </mxGeometry>
                </mxCell>
                <mxCell id="u2bU9BNamu38e8b0bqES-50" value="Включить переобход с помощью Google Indexing API?" style="rhombus;whiteSpace=wrap;html=1;" parent="1" vertex="1">
                    <mxGeometry x="33" y="1991" width="164.5" height="150" as="geometry"/>
                </mxCell>
                <mxCell id="YlY7SSHt3IJ51fpsiqIL-46" value="" style="edgeStyle=none;html=1;" parent="1" source="YlY7SSHt3IJ51fpsiqIL-42" target="YlY7SSHt3IJ51fpsiqIL-45" edge="1">
                    <mxGeometry relative="1" as="geometry"/>
                </mxCell>
                <mxCell id="YlY7SSHt3IJ51fpsiqIL-42" value="Отправка JSON ключа для Google Indexing API" style="shape=parallelogram;perimeter=parallelogramPerimeter;whiteSpace=wrap;html=1;fixedSize=1;" parent="1" vertex="1">
                    <mxGeometry x="17.620000000000005" y="2266" width="194.75" height="60" as="geometry"/>
                </mxCell>
                <mxCell id="YlY7SSHt3IJ51fpsiqIL-51" style="edgeStyle=none;html=1;entryX=0.5;entryY=1;entryDx=0;entryDy=0;" parent="1" source="YlY7SSHt3IJ51fpsiqIL-45" target="YlY7SSHt3IJ51fpsiqIL-50" edge="1">
                    <mxGeometry relative="1" as="geometry">
                        <Array as="points">
                            <mxPoint x="450" y="2511"/>
                        </Array>
                    </mxGeometry>
                </mxCell>
                <mxCell id="YlY7SSHt3IJ51fpsiqIL-54" value="Нет" style="edgeLabel;html=1;align=center;verticalAlign=middle;resizable=0;points=[];" parent="YlY7SSHt3IJ51fpsiqIL-51" vertex="1" connectable="0">
                    <mxGeometry x="-0.3972" relative="1" as="geometry">
                        <mxPoint as="offset"/>
                    </mxGeometry>
                </mxCell>
                <mxCell id="YlY7SSHt3IJ51fpsiqIL-56" value="" style="edgeStyle=none;html=1;" parent="1" source="YlY7SSHt3IJ51fpsiqIL-45" target="YlY7SSHt3IJ51fpsiqIL-55" edge="1">
                    <mxGeometry relative="1" as="geometry"/>
                </mxCell>
                <mxCell id="YlY7SSHt3IJ51fpsiqIL-45" value="Ключ валидный?" style="rhombus;whiteSpace=wrap;html=1;" parent="1" vertex="1">
                    <mxGeometry x="48.25" y="2451" width="135.01" height="115" as="geometry"/>
                </mxCell>
                <mxCell id="YlY7SSHt3IJ51fpsiqIL-52" style="edgeStyle=none;html=1;entryX=1;entryY=0.5;entryDx=0;entryDy=0;" parent="1" source="YlY7SSHt3IJ51fpsiqIL-50" target="YlY7SSHt3IJ51fpsiqIL-42" edge="1">
                    <mxGeometry relative="1" as="geometry">
                        <Array as="points">
                            <mxPoint x="450" y="2296"/>
                        </Array>
                    </mxGeometry>
                </mxCell>
                <mxCell id="YlY7SSHt3IJ51fpsiqIL-50" value="Сообщение об ошибке" style="whiteSpace=wrap;html=1;sketch=0;fillColor=none;" parent="1" vertex="1">
                    <mxGeometry x="390" y="2361" width="120" height="60" as="geometry"/>
                </mxCell>
                <mxCell id="YlY7SSHt3IJ51fpsiqIL-57" style="edgeStyle=none;html=1;entryX=0;entryY=0.5;entryDx=0;entryDy=0;exitX=0;exitY=0.5;exitDx=0;exitDy=0;" parent="1" source="YlY7SSHt3IJ51fpsiqIL-55" target="YlY7SSHt3IJ51fpsiqIL-42" edge="1">
                    <mxGeometry relative="1" as="geometry">
                        <Array as="points">
                            <mxPoint x="-70" y="2704"/>
                            <mxPoint x="-70" y="2296"/>
                        </Array>
                    </mxGeometry>
                </mxCell>
                <mxCell id="YlY7SSHt3IJ51fpsiqIL-58" value="Да" style="edgeLabel;html=1;align=center;verticalAlign=middle;resizable=0;points=[];" parent="YlY7SSHt3IJ51fpsiqIL-57" vertex="1" connectable="0">
                    <mxGeometry x="-0.8277" y="1" relative="1" as="geometry">
                        <mxPoint as="offset"/>
                    </mxGeometry>
                </mxCell>
                <mxCell id="YlY7SSHt3IJ51fpsiqIL-60" value="" style="edgeStyle=none;html=1;" parent="1" source="YlY7SSHt3IJ51fpsiqIL-55" target="YlY7SSHt3IJ51fpsiqIL-59" edge="1">
                    <mxGeometry relative="1" as="geometry"/>
                </mxCell>
                <mxCell id="YlY7SSHt3IJ51fpsiqIL-61" style="edgeStyle=none;html=1;entryX=1;entryY=0.5;entryDx=0;entryDy=0;exitX=1;exitY=0.5;exitDx=0;exitDy=0;" parent="1" source="YlY7SSHt3IJ51fpsiqIL-55" target="YlY7SSHt3IJ51fpsiqIL-59" edge="1">
                    <mxGeometry relative="1" as="geometry">
                        <Array as="points">
                            <mxPoint x="450" y="2704"/>
                            <mxPoint x="450" y="2899"/>
                        </Array>
                    </mxGeometry>
                </mxCell>
                <mxCell id="YlY7SSHt3IJ51fpsiqIL-63" value="Нет" style="edgeLabel;html=1;align=center;verticalAlign=middle;resizable=0;points=[];" parent="YlY7SSHt3IJ51fpsiqIL-61" vertex="1" connectable="0">
                    <mxGeometry x="-0.7018" y="-2" relative="1" as="geometry">
                        <mxPoint as="offset"/>
                    </mxGeometry>
                </mxCell>
                <mxCell id="YlY7SSHt3IJ51fpsiqIL-55" value="Добавить еще один ключ?" style="rhombus;whiteSpace=wrap;html=1;" parent="1" vertex="1">
                    <mxGeometry x="48.25" y="2646" width="135.01" height="115" as="geometry"/>
                </mxCell>
                <mxCell id="YlY7SSHt3IJ51fpsiqIL-67" value="" style="edgeStyle=none;html=1;" parent="1" source="YlY7SSHt3IJ51fpsiqIL-59" target="YlY7SSHt3IJ51fpsiqIL-66" edge="1">
                    <mxGeometry relative="1" as="geometry"/>
                </mxCell>
                <mxCell id="YlY7SSHt3IJ51fpsiqIL-59" value="Вывод информации о добавляемом проекте" style="whiteSpace=wrap;html=1;" parent="1" vertex="1">
                    <mxGeometry x="55.754999999999995" y="2868.5" width="120" height="60" as="geometry"/>
                </mxCell>
                <mxCell id="YlY7SSHt3IJ51fpsiqIL-66" value="Добавить проект?" style="rhombus;whiteSpace=wrap;html=1;" parent="1" vertex="1">
                    <mxGeometry x="75.755" y="2998.5" width="80" height="80" as="geometry"/>
                </mxCell>
            </root>
        </mxGraphModel>
    </diagram>
</mxfile>